<svg width="40" height="53" viewBox="0 0 40 53" fill="none" xmlns="http://www.w3.org/2000/svg">
<ellipse cx="22.7212" cy="26.6882" rx="1.86818" ry="1.86818" fill="#6F7AEC"/>
<path d="M20.8592 34.8431C24.8924 36.1137 27.1537 38.9124 27.2117 42.558C26.3049 43.4911 25.1827 44.3178 23.8719 44.7015C23.102 44.927 22.7356 45.5732 25.0623 46.1537C25.5923 46.2859 26.0913 46.3471 26.5526 46.3627C24.8064 51.4 20.6218 53.4283 15.5584 51.8334L9.11017 49.8031L10.369 45.8051C11.0427 45.8704 11.8294 45.8362 12.7 45.6176C15.0267 45.0331 14.6595 44.3836 13.8895 44.1566C12.9106 43.8681 12.0495 43.3865 11.3094 42.8187L14.4578 32.8265L20.8592 34.8431ZM14.7615 47.4076L16.5906 47.9838C19.2168 48.811 21.0407 48.1738 22.1707 44.5863C23.3007 40.9988 22.1709 39.4319 19.4276 38.5677L17.7156 38.0287L14.7615 47.4076Z" fill="#6F7AEC"/>
<path d="M6.04099 48.9729C-9.97192 30.2911 8.84328 2.66882 27.6585 0C25.2565 13.611 31.9286 17.8811 35.3981 23.0853C45.5396 38.2976 36.5546 48.3946 30.9945 51.9086C32.062 43.6886 28.7705 37.9862 26.9913 36.1625C28.1922 35.184 30.9678 32.7731 32.4624 30.9583C33.9569 29.1435 33.5299 27.7113 33.1296 27.222C27.6852 20.9236 22.1429 21.1282 20.0523 22.0178C18.878 18.2814 15.9157 16.9915 14.5812 16.8136C12.4462 20.5499 14.1809 23.2187 15.2485 24.82C5.50725 30.2911 5.19587 43.1904 6.04099 48.9729Z" fill="#6F7AEC"/>
</svg>
